# xmcd CD database file generated by OrangeCD 5.2
#
# Track frame offsets:
#	150
#	18477
#	33764
#	51843
#	69847
#	86562
#	106602
#	120075
#	132511
#	151817
#
# Disc length: 2216 seconds
#
# Revision: 1
# Processed by: cddbd v1.5.1PL0 Copyright (c) Steve Scherf et al.
# Submitted via: OrangeCD 5.2
#
DISCID=6b08a60a
DTITLE=Dave Sheriff and The Nashville Superpickers - Fly Away
DYEAR=1998
DGENRE=Country
TTITLE0=Fly Away
TTITLE1=Four Wheel Cowboy
TTITLE2=Heart Made Of Stone
TTITLE3=More Than One Heart
TTITLE4=String Love
TTITLE5=Unforgotten Hero
TTITLE6=A Love Like Mine
TTITLE7=Cowgirl Swing
TTITLE8=She (Who Must Be Obeyed)
TTITLE9=Cajun Strut
EXTD=
EXTT0=
EXTT1=
EXTT2=
EXTT3=
EXTT4=
EXTT5=
EXTT6=
EXTT7=
EXTT8=
EXTT9=
PLAYORDER=
